<?xml version="1.0" ?><svg height="60px" version="1.1" viewBox="0 0 38 60" width="38px" xmlns="http://www.w3.org/2000/svg" xmlns:xlink="http://www.w3.org/1999/xlink"><title/><desc/><defs/><g fill="none" fill-rule="evenodd" id="Page-1" stroke="none" stroke-width="1"><g fill-rule="nonzero" id="032---Luggage"><g id="Icons" transform="translate(1.000000, 1.000000)"><rect fill="#735EFF" height="4" id="Rectangle-path" rx="2" width="22" x="7" y="0"/><rect fill="#FFACAD" height="38" id="Rectangle-path" rx="4" width="36" x="0" y="16"/><rect fill="#FFFFFF" height="18" id="Rectangle-path" rx="2" width="24" x="6" y="32"/><path d="M4,54 L8,54 L8,56 C8,57.1045695 7.1045695,58 6,58 C4.8954305,58 4,57.1045695 4,56 L4,54 Z" fill="#000000" id="Shape"/><path d="M28,54 L32,54 L32,56 C32,57.1045695 31.1045695,58 30,58 C28.8954305,58 28,57.1045695 28,56 L28,54 Z" fill="#000000" id="Shape"/><path d="M36,20 L36,24 L0,24 L0,20 C0,17.790861 1.790861,16 4,16 L32,16 C34.209139,16 36,17.790861 36,20 Z" fill="#F96A59" id="Shape"/><rect fill="#735EFF" height="6" id="Rectangle-path" rx="1" width="4" x="5" y="21"/><rect fill="#735EFF" height="6" id="Rectangle-path" rx="1" width="4" x="27" y="21"/></g><g fill="#000000" id="Layer_10"><path d="M0.5,21 L0.5,51 C0.507218045,53.2846984 2.22893478,55.1996778 4.5,55.449 L4.5,57 C4.5,58.3807119 5.61928813,59.5 7,59.5 C8.38071187,59.5 9.5,58.3807119 9.5,57 L9.5,55.5 L28.5,55.5 L28.5,57 C28.5,58.3807119 29.6192881,59.5 31,59.5 C32.3807119,59.5 33.5,58.3807119 33.5,57 L33.5,55.449 C35.7710652,55.1996778 37.492782,53.2846984 37.5,51 L37.5,21 C37.4972444,18.5158609 35.4841391,16.5027556 33,16.5 L28.5,16.5 L28.5,5.449 C29.7563263,5.19127741 30.6138644,4.02469476 30.4849502,2.74870184 C30.356036,1.47270892 29.2824879,0.501224886 28,0.5 L10,0.5 C8.71751207,0.501224886 7.64396403,1.47270892 7.51504982,2.74870184 C7.3861356,4.02469476 8.24367366,5.19127741 9.5,5.449 L9.5,16.5 L5,16.5 C2.51586091,16.5027556 0.502755564,18.5158609 0.5,21 Z M8.5,57 C8.5,57.8284271 7.82842712,58.5 7,58.5 C6.17157288,58.5 5.5,57.8284271 5.5,57 L5.5,55.5 L8.5,55.5 L8.5,57 Z M32.5,57 C32.5,57.8284271 31.8284271,58.5 31,58.5 C30.1715729,58.5 29.5,57.8284271 29.5,57 L29.5,55.5 L32.5,55.5 L32.5,57 Z M33,54.5 L5,54.5 C3.06700338,54.5 1.5,52.9329966 1.5,51 L1.5,25.5 L5.5,25.5 L5.5,27 C5.5,27.8284271 6.17157288,28.5 7,28.5 L9,28.5 C9.82842712,28.5 10.5,27.8284271 10.5,27 L10.5,25.5 L27.5,25.5 L27.5,27 C27.5,27.8284271 28.1715729,28.5 29,28.5 L31,28.5 C31.8284271,28.5 32.5,27.8284271 32.5,27 L32.5,25.5 L36.5,25.5 L36.5,51 C36.5,52.9329966 34.9329966,54.5 33,54.5 Z M9.5,27 C9.5,27.2761424 9.27614237,27.5 9,27.5 L7,27.5 C6.72385763,27.5 6.5,27.2761424 6.5,27 L6.5,23 C6.5,22.7238576 6.72385763,22.5 7,22.5 L9,22.5 C9.27614237,22.5 9.5,22.7238576 9.5,23 L9.5,27 Z M31.5,27 C31.5,27.2761424 31.2761424,27.5 31,27.5 L29,27.5 C28.7238576,27.5 28.5,27.2761424 28.5,27 L28.5,23 C28.5,22.7238576 28.7238576,22.5 29,22.5 L31,22.5 C31.2761424,22.5 31.5,22.7238576 31.5,23 L31.5,27 Z M8.5,3 C8.5,2.17157288 9.17157288,1.5 10,1.5 L28,1.5 C28.8284271,1.5 29.5,2.17157288 29.5,3 C29.5,3.82842712 28.8284271,4.5 28,4.5 L10,4.5 C9.17157288,4.5 8.5,3.82842712 8.5,3 Z M10.5,5.5 L27.5,5.5 L27.5,16.5 L10.5,16.5 L10.5,5.5 Z M5,17.5 L33,17.5 C34.9329966,17.5 36.5,19.0670034 36.5,21 L36.5,24.5 L32.5,24.5 L32.5,23 C32.5,22.1715729 31.8284271,21.5 31,21.5 L29,21.5 C28.1715729,21.5 27.5,22.1715729 27.5,23 L27.5,24.5 L10.5,24.5 L10.5,23 C10.5,22.1715729 9.82842712,21.5 9,21.5 L7,21.5 C6.17157288,21.5 5.5,22.1715729 5.5,23 L5.5,24.5 L1.5,24.5 L1.5,21 C1.5,19.0670034 3.06700338,17.5 5,17.5 Z" id="Shape"/><path d="M29,32.5 L9,32.5 C7.61928813,32.5 6.5,33.6192881 6.5,35 L6.5,49 C6.5,50.3807119 7.61928813,51.5 9,51.5 L29,51.5 C30.3807119,51.5 31.5,50.3807119 31.5,49 L31.5,35 C31.5,33.6192881 30.3807119,32.5 29,32.5 Z M30.5,49 C30.5,49.8284271 29.8284271,50.5 29,50.5 L9,50.5 C8.17157288,50.5 7.5,49.8284271 7.5,49 L7.5,35 C7.5,34.1715729 8.17157288,33.5 9,33.5 L29,33.5 C29.8284271,33.5 30.5,34.1715729 30.5,35 L30.5,49 Z" id="Shape"/></g></g></g></svg>